<svg width="50" height="27" viewBox="0 0 50 27" fill="none" xmlns="http://www.w3.org/2000/svg">
<path fill-rule="evenodd" clip-rule="evenodd" d="M50 20.094C50 21.3506 49.209 21.9363 47.7933 21.9363H45.0878V20.6797H47.7933C48.0432 20.6797 48.2514 20.6381 48.335 20.5546C48.418 20.4705 48.5013 20.3448 48.5013 20.1775C48.5013 20.0096 48.4183 19.8423 48.335 19.7589C48.2514 19.6748 48.0851 19.6332 47.8353 19.6332C46.5451 19.591 44.9212 19.6748 44.9212 17.8322C44.9212 16.9943 45.4623 16.0728 46.9193 16.0728H49.7085V17.3294H47.1273C46.878 17.3294 46.7111 17.3294 46.5862 17.4129C46.4612 17.5386 46.3782 17.6643 46.3782 17.8738C46.3782 18.0833 46.5032 18.209 46.6694 18.2931C46.8363 18.3347 47.0029 18.3766 47.2112 18.3766H47.9602C48.7512 18.3766 49.251 18.5438 49.5841 18.8374C49.8334 19.1304 50 19.5078 50 20.094ZM44.1299 18.8374C43.7967 18.5438 43.2969 18.3766 42.5059 18.3766H41.7569C41.549 18.3766 41.3821 18.3344 41.2158 18.2931C41.0489 18.209 40.9246 18.0833 40.9246 17.8738C40.9246 17.6643 40.9659 17.5386 41.1325 17.4129C41.2574 17.3294 41.4237 17.3294 41.6736 17.3294H44.2548V16.0728H41.4657C39.9667 16.0728 39.4669 16.9943 39.4669 17.8322C39.4669 19.6745 41.0909 19.591 42.3816 19.6332C42.6309 19.6332 42.7978 19.6748 42.8808 19.7589C42.9638 19.8423 43.0477 20.0096 43.0477 20.1775C43.0477 20.3448 42.9641 20.4705 42.8808 20.5546C42.7558 20.6381 42.5895 20.6797 42.3397 20.6797H39.6335V21.9363H42.3397C43.7548 21.9363 44.546 21.3503 44.546 20.094C44.546 19.5078 44.3798 19.1304 44.1299 18.8374ZM38.8009 20.7222H35.5126V19.5494H38.7179V18.3772H35.5126V17.2878H38.8009V16.0734H34.1385V21.9366H38.8009V20.7222ZM32.6395 16.3667C32.1814 16.1153 31.6403 16.0731 30.9326 16.0731H27.7273V21.9363H29.1424V19.8004H30.6414C31.1405 19.8004 31.4324 19.8426 31.6406 20.0518C31.8905 20.3448 31.8905 20.8476 31.8905 21.2246V21.9363H33.2639V20.8054C33.2639 20.261 33.2226 20.0096 33.056 19.7167C32.931 19.5488 32.6818 19.3396 32.3486 19.2139C32.7228 19.0888 33.3478 18.586 33.3478 17.6643C33.3475 16.9946 33.0976 16.6175 32.6395 16.3667ZM24.7296 16.0731H20.2749L18.4847 17.9998L16.7777 16.0731H11.1575V21.9363H16.6947L18.485 20.0096L20.1919 21.9363H22.898V19.9683H24.6466C25.8538 19.9683 27.0615 19.6332 27.0615 17.9998C27.0612 16.4083 25.8121 16.0731 24.7296 16.0731ZM31.5154 18.5026C31.3074 18.586 31.0992 18.586 30.8493 18.586L29.1424 18.6282V17.2875H30.8493C31.0992 17.2875 31.3491 17.2875 31.5154 17.4132C31.6822 17.4973 31.8066 17.6646 31.8066 17.916C31.8066 18.1674 31.6822 18.3769 31.5154 18.5026ZM24.7296 18.7955H22.8977V17.2875H24.7296C25.2294 17.2875 25.5622 17.4973 25.5622 17.9998C25.5622 18.5026 25.2291 18.7955 24.7296 18.7955ZM19.3589 19.0047L21.5237 16.7016V21.4341L19.3589 19.0047ZM15.9867 20.7222H12.5312V19.5494H15.6119V18.3772H12.5312V17.2878H16.0284L17.5687 19.005L15.9867 20.7222ZM46.128 11.8431H44.1299L41.507 7.44542V11.8431H38.6765L38.1348 10.5446H35.2207L34.6796 11.8431H33.0557C32.3896 11.8431 31.5154 11.6755 31.0162 11.1727C30.5581 10.6703 30.3082 10.0002 30.3082 8.9531C30.3082 8.07357 30.4331 7.27783 31.0572 6.64968C31.4734 6.18881 32.223 5.97963 33.1803 5.97963H34.5124V7.23624H33.1803C32.6812 7.23624 32.3893 7.32003 32.0981 7.57141C31.8482 7.82279 31.7233 8.28335 31.7233 8.9115C31.7233 9.53965 31.8482 10.0005 32.0981 10.2938C32.306 10.503 32.6812 10.5868 33.0554 10.5868H33.6801L35.6782 5.97994H37.76L40.0913 11.5082V5.97963H42.2564L44.7126 10.0421V5.97963H46.1277V11.8431H46.128ZM29.6005 5.97963H28.1854V11.8431H29.6005V5.97963ZM26.6445 6.23102C26.1863 5.97963 25.6872 5.97963 24.9795 5.97963H21.7736V11.8431H23.1473V9.70694H24.646C25.1458 9.70694 25.4789 9.74884 25.6869 9.95832C25.9368 10.2516 25.8948 10.7544 25.8948 11.0892V11.8431H27.3099V10.6703C27.3099 10.1678 27.2686 9.91642 27.0606 9.62315C26.9357 9.45556 26.6858 9.24607 26.3946 9.12069C26.7688 8.9531 27.3938 8.49254 27.3938 7.57111C27.3941 6.90106 27.1023 6.52399 26.6445 6.23102ZM20.7743 10.6287H17.5271V9.45586H20.7327V8.24146H17.5271V7.19434H20.7743V5.97994H16.1117V11.8434H20.7743V10.6287ZM15.0708 5.97963H12.7811L11.0742 9.95832L9.24232 5.97963H6.99429V11.5079L4.62131 5.97963H2.53987L0.0419488 11.8431H1.54064L2.08175 10.5446H4.99584L5.53695 11.8431H8.36804V7.23624L10.4078 11.8431H11.615L13.6551 7.23624V11.8431H15.0705V5.97963H15.0708ZM37.6357 9.28827L36.6778 6.98486L35.7205 9.28827H37.6357ZM25.5622 8.36715C25.3543 8.49284 25.1461 8.49284 24.8545 8.49284H23.1473V7.19464H24.8542C25.1041 7.19464 25.395 7.19464 25.5619 7.27844C25.7282 7.40413 25.8118 7.57172 25.8118 7.82279C25.8118 8.07387 25.7285 8.28305 25.5622 8.36715ZM2.58121 9.28827L3.53879 6.98486L4.49637 9.28827H2.58121ZM49.6671 0H0V8.70202L1.70693 4.80713H5.32871L5.82847 5.77045V4.80713H10.075L11.0325 6.90106L11.9485 4.80713H25.4789C26.103 4.80713 26.6442 4.93282 27.0609 5.26769V4.80713H30.766V5.26769C31.3901 4.93251 32.1811 4.80713 33.0973 4.80713H38.4677L38.9675 5.77045V4.80713H42.9224L43.5055 5.77045V4.80713H47.3768V13.0159H43.4638L42.7148 11.7596V13.0159H37.8436L37.3025 11.6758H36.0947L35.5536 13.0159H33.0143C32.0151 13.0159 31.2655 12.7645 30.7663 12.5134V13.0159H24.7296V11.1311C24.7296 10.8797 24.688 10.8379 24.5214 10.8379H24.3134V13.0156H12.6562V11.9685L12.24 13.0156H9.78374L9.36757 12.0104V13.0156H4.66296L4.1635 11.6755H2.95604L2.41493 13.0156H0V27H49.6671V22.732C49.126 22.9834 48.3764 23.1091 47.627 23.1091H44.0049V22.6063C43.5888 22.9418 42.8391 23.1091 42.1317 23.1091H30.7244V21.2246C30.7244 20.9733 30.683 20.9733 30.4745 20.9733H30.2665V23.1091H26.5195V20.8895C25.8954 21.1824 25.1874 21.1824 24.563 21.1824H24.1465V23.1091H19.5672L18.485 21.8525L17.2778 23.1091H9.90838V14.9006H17.4021L18.4847 16.1566L19.6505 14.9006H24.688C25.2704 14.9006 26.2283 14.9841 26.6445 15.4028V14.9006H31.1405C31.5986 14.9006 32.4732 14.9841 33.0557 15.4028V14.9006H39.8417V15.4031C40.2166 15.0679 40.9246 14.9009 41.5487 14.9009H45.337V15.4031C45.7538 15.1101 46.3363 14.9009 47.0859 14.9009H49.6671V0Z" fill="#9A9CAA"/>
</svg>
