<svg width="20" height="20" viewBox="0 0 20 20" fill="none" xmlns="http://www.w3.org/2000/svg">
<path d="M0.75 0.75L2.83 1.11L3.793 12.583C3.82999 13.0345 4.03584 13.4554 4.36948 13.7618C4.70312 14.0682 5.14002 14.2375 5.593 14.236H16.503C16.9367 14.2365 17.3561 14.0803 17.6838 13.7963C18.0116 13.5122 18.2258 13.1194 18.287 12.69L19.237 6.132C19.2623 5.95759 19.253 5.7799 19.2096 5.60909C19.1662 5.43828 19.0896 5.2777 18.9841 5.13653C18.8786 4.99536 18.7463 4.87637 18.5947 4.78637C18.4432 4.69637 18.2754 4.63711 18.101 4.612C18.037 4.605 3.164 4.6 3.164 4.6" stroke="white" stroke-width="1.5" stroke-linecap="round" stroke-linejoin="round"/>
<path d="M12.125 8.29504H14.898" stroke="white" stroke-width="1.5" stroke-linecap="round" stroke-linejoin="round"/>
<path fill-rule="evenodd" clip-rule="evenodd" d="M5.15398 17.703C5.22732 17.6999 5.30053 17.7116 5.36921 17.7375C5.4379 17.7634 5.50063 17.8029 5.55363 17.8537C5.60664 17.9045 5.64882 17.9655 5.67763 18.033C5.70645 18.1005 5.7213 18.1731 5.7213 18.2465C5.7213 18.3199 5.70645 18.3926 5.67763 18.4601C5.64882 18.5276 5.60664 18.5886 5.55363 18.6393C5.50063 18.6901 5.4379 18.7296 5.36921 18.7555C5.30053 18.7814 5.22732 18.7932 5.15398 18.79C5.01387 18.784 4.88149 18.7241 4.78448 18.6228C4.68746 18.5216 4.6333 18.3868 4.6333 18.2465C4.6333 18.1063 4.68746 17.9715 4.78448 17.8702C4.88149 17.7689 5.01387 17.709 5.15398 17.703Z" fill="white" stroke="white" stroke-width="1.5" stroke-linecap="round" stroke-linejoin="round"/>
<path fill-rule="evenodd" clip-rule="evenodd" d="M16.4351 17.703C16.5797 17.703 16.7183 17.7604 16.8205 17.8626C16.9227 17.9648 16.9801 18.1035 16.9801 18.248C16.9801 18.3925 16.9227 18.5312 16.8205 18.6334C16.7183 18.7356 16.5797 18.793 16.4351 18.793C16.2906 18.793 16.152 18.7356 16.0498 18.6334C15.9476 18.5312 15.8901 18.3925 15.8901 18.248C15.8901 18.1035 15.9476 17.9648 16.0498 17.8626C16.152 17.7604 16.2906 17.703 16.4351 17.703Z" fill="white" stroke="white" stroke-width="1.5" stroke-linecap="round" stroke-linejoin="round"/>
</svg>
