<svg width="166" height="40" viewBox="0 0 166 40" fill="none" xmlns="http://www.w3.org/2000/svg">
<g clip-path="url(#clip0_13_2992)">
<path d="M39.9938 19.7464C39.9286 18.4433 39.3566 17.2173 38.3999 16.3301C37.4432 15.4429 36.1776 14.9649 34.8732 14.9979C33.5689 15.031 32.3292 15.5727 31.4187 16.5072C30.5082 17.4418 29.9991 18.6952 30 20V28.3333C30 27.8913 29.8244 27.4674 29.5119 27.1548C29.1993 26.8422 28.7754 26.6667 28.3334 26.6667H11.6667C11.2247 26.6667 10.8007 26.8422 10.4882 27.1548C10.1756 27.4674 10 27.8913 10 28.3333V20C9.99996 19.0833 9.74791 18.1843 9.27143 17.4013C8.79495 16.6182 8.11237 15.9812 7.2983 15.5598C6.48422 15.1385 5.56999 14.949 4.65552 15.0122C3.74105 15.0754 2.86154 15.3887 2.11312 15.9179C1.3647 16.4472 0.776167 17.172 0.411857 18.0131C0.0475467 18.8543 -0.0785237 19.7794 0.0474254 20.6873C0.173374 21.5953 0.546496 22.4511 1.12601 23.1614C1.70552 23.8716 2.46912 24.4088 3.33334 24.7144V33.3333C3.33334 33.7753 3.50893 34.1993 3.8215 34.5118C4.13406 34.8244 4.55798 35 5.00001 35H6.66668V38.3333H10V35H30V38.3333H33.3334V35H35C35.4421 35 35.866 34.8244 36.1786 34.5118C36.4911 34.1993 36.6667 33.7753 36.6667 33.3333V24.7144C37.6824 24.3551 38.5549 23.6775 39.1544 22.7823C39.7539 21.8872 40.0483 20.8224 39.9938 19.7464Z" fill="#029FAE"/>
<path d="M11.6665 20V25H28.3332V20C28.3351 18.5224 28.8269 17.0872 29.7316 15.919C30.6364 14.7508 31.903 13.9157 33.3332 13.5443V9.99996C33.3307 7.79058 32.4519 5.67241 30.8896 4.11014C29.3274 2.54788 27.2092 1.66911 24.9998 1.66663H14.9998C12.7905 1.66911 10.6723 2.54788 9.11002 4.11014C7.54776 5.67241 6.66899 7.79058 6.6665 9.99996V13.5443C8.09664 13.9157 9.36325 14.7508 10.268 15.919C11.1728 17.0872 11.6646 18.5224 11.6665 20ZM23.3332 8.33329C23.6628 8.33329 23.985 8.43104 24.2591 8.61418C24.5332 8.79731 24.7468 9.05761 24.873 9.36215C24.9991 9.6667 25.0321 10.0018 24.9678 10.3251C24.9035 10.6484 24.7448 10.9454 24.5117 11.1785C24.2786 11.4116 23.9816 11.5703 23.6583 11.6346C23.335 11.6989 22.9999 11.6659 22.6954 11.5398C22.3908 11.4136 22.1305 11.2 21.9474 10.9259C21.7642 10.6518 21.6665 10.3296 21.6665 9.99996C21.6665 9.55793 21.8421 9.13401 22.1547 8.82145C22.4672 8.50889 22.8911 8.33329 23.3332 8.33329ZM23.3332 13.3333C23.6628 13.3333 23.985 13.431 24.2591 13.6142C24.5332 13.7973 24.7468 14.0576 24.873 14.3622C24.9991 14.6667 25.0321 15.0018 24.9678 15.3251C24.9035 15.6484 24.7448 15.9454 24.5117 16.1785C24.2786 16.4116 23.9816 16.5703 23.6583 16.6346C23.335 16.6989 22.9999 16.6659 22.6954 16.5398C22.3908 16.4136 22.1305 16.2 21.9474 15.9259C21.7642 15.6518 21.6665 15.3296 21.6665 15C21.6665 14.5579 21.8421 14.134 22.1547 13.8214C22.4672 13.5089 22.8911 13.3333 23.3332 13.3333ZM16.6665 8.33329C16.9961 8.33329 17.3184 8.43104 17.5925 8.61418C17.8665 8.79731 18.0802 9.05761 18.2063 9.36215C18.3324 9.6667 18.3655 10.0018 18.3011 10.3251C18.2368 10.6484 18.0781 10.9454 17.845 11.1785C17.6119 11.4116 17.315 11.5703 16.9917 11.6346C16.6684 11.6989 16.3332 11.6659 16.0287 11.5398C15.7242 11.4136 15.4639 11.2 15.2807 10.9259C15.0976 10.6518 14.9998 10.3296 14.9998 9.99996C14.9998 9.55793 15.1754 9.13401 15.488 8.82145C15.8006 8.50889 16.2245 8.33329 16.6665 8.33329ZM16.6665 13.3333C16.9961 13.3333 17.3184 13.431 17.5925 13.6142C17.8665 13.7973 18.0802 14.0576 18.2063 14.3622C18.3324 14.6667 18.3655 15.0018 18.3011 15.3251C18.2368 15.6484 18.0781 15.9454 17.845 16.1785C17.6119 16.4116 17.315 16.5703 16.9917 16.6346C16.6684 16.6989 16.3332 16.6659 16.0287 16.5398C15.7242 16.4136 15.4639 16.2 15.2807 15.9259C15.0976 15.6518 14.9998 15.3296 14.9998 15C14.9998 14.5579 15.1754 14.134 15.488 13.8214C15.8006 13.5089 16.2245 13.3333 16.6665 13.3333Z" fill="#029FAE"/>
</g>
<path d="M65.7827 16.7401C65.1364 12.696 61.9695 10.3324 57.9716 10.3324C53.0781 10.3324 49.468 13.9979 49.468 20.0455C49.468 26.093 53.0597 29.7585 57.9716 29.7585C62.1264 29.7585 65.1641 27.1548 65.7827 23.4155L62.902 23.4062C62.4126 25.8253 60.3814 27.1548 57.9901 27.1548C54.7493 27.1548 52.3026 24.6712 52.3026 20.0455C52.3026 15.4567 54.7401 12.9361 57.9993 12.9361C60.4091 12.9361 62.4311 14.2933 62.902 16.7401H65.7827ZM74.9487 29.7862C78.9466 29.7862 81.5595 26.8594 81.5595 22.4737C81.5595 18.0604 78.9466 15.1335 74.9487 15.1335C70.9508 15.1335 68.3379 18.0604 68.3379 22.4737C68.3379 26.8594 70.9508 29.7862 74.9487 29.7862ZM74.9579 27.4688C72.345 27.4688 71.1262 25.1882 71.1262 22.4645C71.1262 19.75 72.345 17.4418 74.9579 17.4418C77.5524 17.4418 78.7711 19.75 78.7711 22.4645C78.7711 25.1882 77.5524 27.4688 74.9579 27.4688ZM84.641 29.5H87.4016V20.7564C87.4016 18.8452 88.7404 17.5156 90.31 17.5156C91.8427 17.5156 92.9045 18.5312 92.9045 20.0732V29.5H95.6559V20.4609C95.6559 18.7528 96.6992 17.5156 98.4996 17.5156C99.9585 17.5156 101.159 18.3281 101.159 20.2486V29.5H103.919V19.9901C103.919 16.7493 102.11 15.1335 99.543 15.1335C97.5025 15.1335 95.9698 16.1122 95.2866 17.6264H95.1388C94.5202 16.0753 93.2184 15.1335 91.3256 15.1335C89.4513 15.1335 88.0572 16.0661 87.4663 17.6264H87.2908V15.3182H84.641V29.5ZM114.369 15.3182H111.313V14.044C111.313 12.7884 111.83 12.1051 113.178 12.1051C113.75 12.1051 114.156 12.2344 114.415 12.3175L115.061 10.0831C114.673 9.93537 113.87 9.70454 112.753 9.70454C110.509 9.70454 108.543 11.0156 108.543 13.6747V15.3182H106.355V17.5341H108.543V29.5H111.313V17.5341H114.369V15.3182ZM122.632 29.7862C126.63 29.7862 129.243 26.8594 129.243 22.4737C129.243 18.0604 126.63 15.1335 122.632 15.1335C118.634 15.1335 116.021 18.0604 116.021 22.4737C116.021 26.8594 118.634 29.7862 122.632 29.7862ZM122.642 27.4688C120.029 27.4688 118.81 25.1882 118.81 22.4645C118.81 19.75 120.029 17.4418 122.642 17.4418C125.236 17.4418 126.455 19.75 126.455 22.4645C126.455 25.1882 125.236 27.4688 122.642 27.4688ZM132.325 29.5H135.085V20.8395C135.085 18.9837 136.516 17.6449 138.474 17.6449C139.046 17.6449 139.692 17.7464 139.914 17.8111V15.1705C139.637 15.1335 139.092 15.1058 138.741 15.1058C137.08 15.1058 135.658 16.0476 135.141 17.571H134.993V15.3182H132.325V29.5ZM149.761 15.3182H146.853V11.9205H144.092V15.3182H142.015V17.5341H144.092V25.9084C144.083 28.4844 146.049 29.7308 148.228 29.6847C149.105 29.6754 149.696 29.5092 150.02 29.3892L149.521 27.1087C149.336 27.1456 148.995 27.2287 148.551 27.2287C147.656 27.2287 146.853 26.9332 146.853 25.3359V17.5341H149.761V15.3182ZM154.56 34.8182C156.84 34.8182 158.281 33.6271 159.102 31.3928L164.965 15.3459L161.983 15.3182L158.392 26.3239H158.244L154.652 15.3182H151.698L156.887 29.6847L156.545 30.6264C155.843 32.5099 154.855 32.6669 153.341 32.2514L152.676 34.5135C153.009 34.6612 153.729 34.8182 154.56 34.8182Z" fill="#272343"/>
<defs>
<clipPath id="clip0_13_2992">
<rect width="40" height="40" fill="white"/>
</clipPath>
</defs>
</svg>
