<svg width="22" height="19" viewBox="0 0 22 19" fill="none" xmlns="http://www.w3.org/2000/svg">
<path d="M15.794 0.749986C17.118 0.749986 18.362 1.26599 19.298 2.20099C20.2262 3.1309 20.7475 4.3911 20.7475 5.70499C20.7475 7.01887 20.2262 8.27907 19.298 9.20899L11 17.508L2.70096 9.20899C1.77307 8.27911 1.25195 7.01912 1.25195 5.70549C1.25195 4.39185 1.77307 3.13186 2.70096 2.20199C3.15999 1.74029 3.70604 1.37422 4.30751 1.12498C4.90897 0.875747 5.5539 0.748288 6.20496 0.749986C7.52896 0.749986 8.77296 1.26599 9.70896 2.20099L10.469 2.96099L11 3.49199L11.53 2.96099L12.29 2.20099C12.7492 1.7396 13.2953 1.37381 13.8967 1.12475C14.4982 0.8757 15.143 0.748323 15.794 0.749986Z" stroke="#111111" stroke-width="1.5"/>
</svg>
