<svg width="14" height="14" viewBox="0 0 14 14" fill="none" xmlns="http://www.w3.org/2000/svg">
<path d="M9.6665 3.66667C9.6665 3.48986 9.73674 3.32029 9.86177 3.19526C9.98679 3.07024 10.1564 3 10.3332 3C10.51 3 10.6796 3.07024 10.8046 3.19526C10.9296 3.32029 10.9998 3.48986 10.9998 3.66667C10.9998 3.84348 10.9296 4.01305 10.8046 4.13807C10.6796 4.2631 10.51 4.33333 10.3332 4.33333C10.1564 4.33333 9.98679 4.2631 9.86177 4.13807C9.73674 4.01305 9.6665 3.84348 9.6665 3.66667Z" fill="#007580"/>
<path fill-rule="evenodd" clip-rule="evenodd" d="M6.99992 3.83301C6.16007 3.83301 5.35461 4.16664 4.76075 4.7605C4.16688 5.35437 3.83325 6.15982 3.83325 6.99967C3.83325 7.83953 4.16688 8.64498 4.76075 9.23885C5.35461 9.83271 6.16007 10.1663 6.99992 10.1663C7.83977 10.1663 8.64523 9.83271 9.23909 9.23885C9.83296 8.64498 10.1666 7.83953 10.1666 6.99967C10.1666 6.15982 9.83296 5.35437 9.23909 4.7605C8.64523 4.16664 7.83977 3.83301 6.99992 3.83301ZM4.83325 6.99967C4.83325 6.42504 5.06153 5.87394 5.46785 5.46761C5.87418 5.06128 6.42528 4.83301 6.99992 4.83301C7.57455 4.83301 8.12565 5.06128 8.53198 5.46761C8.93831 5.87394 9.16659 6.42504 9.16659 6.99967C9.16659 7.57431 8.93831 8.12541 8.53198 8.53174C8.12565 8.93807 7.57455 9.16634 6.99992 9.16634C6.42528 9.16634 5.87418 8.93807 5.46785 8.53174C5.06153 8.12541 4.83325 7.57431 4.83325 6.99967Z" fill="#007580"/>
<path fill-rule="evenodd" clip-rule="evenodd" d="M10.5053 0.888526C8.17554 0.630257 5.82438 0.630257 3.49462 0.888526C2.15329 1.03853 1.06996 2.09519 0.912622 3.44319C0.636222 5.80625 0.636222 8.19347 0.912622 10.5565C1.06996 11.9045 2.15262 12.9612 3.49462 13.1112C5.80529 13.3692 8.19462 13.3692 10.5053 13.1112C11.8466 12.9612 12.93 11.9045 13.0873 10.5565C13.3637 8.19347 13.3637 5.80625 13.0873 3.44319C12.93 2.09519 11.8473 1.03853 10.5053 0.888526ZM3.60529 1.88186C5.86149 1.63177 8.13842 1.63177 10.3946 1.88186C11.2813 1.98186 11.9913 2.68119 12.0946 3.55986C12.3619 5.8454 12.3619 8.15431 12.0946 10.4399C11.9913 11.3185 11.2813 12.0185 10.3946 12.1172C8.13842 12.3673 5.86149 12.3673 3.60529 12.1172C2.71862 12.0185 2.00862 11.3185 1.90529 10.4399C1.63799 8.15431 1.63799 5.8454 1.90529 3.55986C2.00862 2.68119 2.71862 1.98119 3.60529 1.88253V1.88186Z" fill="#007580"/>
</svg>
