<svg width="36" height="23" viewBox="0 0 36 23" fill="none" xmlns="http://www.w3.org/2000/svg">
<path d="M35.6525 18.3939V17.9619H35.54L35.4099 18.2583L35.2805 17.9619H35.1676V18.3939H35.2475V18.0685L35.3692 18.3492H35.452L35.5736 18.0677V18.3939H35.6528H35.6525ZM34.9389 18.3939V18.0359H35.0828V17.963H34.715V18.0359H34.8589V18.3939H34.9381H34.9389Z" fill="#F79410"/>
<path d="M22.8674 20.2467H13.1332V2.75293H22.8676L22.8674 20.2467Z" fill="#FF5F00"/>
<path d="M13.7503 11.5002C13.7503 7.95158 15.4118 4.79045 17.9992 2.75329C16.0407 1.20898 13.6183 0.370839 11.1242 0.374524C4.98034 0.374524 0 5.35558 0 11.5002C0 17.6448 4.98034 22.6259 11.1242 22.6259C13.6184 22.6296 16.0408 21.7914 17.9994 20.2471C15.4122 18.2103 13.7503 15.049 13.7503 11.5002Z" fill="#EB001B"/>
<path d="M36 11.5002C36 17.6448 31.0197 22.6259 24.8758 22.6259C22.3814 22.6295 19.9587 21.7914 17.9998 20.2471C20.5878 18.2099 22.2494 15.049 22.2494 11.5002C22.2494 7.9514 20.5878 4.79045 17.9998 2.75329C19.9586 1.20903 22.3812 0.370903 24.8756 0.374523C31.0195 0.374523 35.9998 5.35558 35.9998 11.5002" fill="#F79E1B"/>
</svg>
