<svg width="56" height="15" viewBox="0 0 56 15" fill="none" xmlns="http://www.w3.org/2000/svg">
<path d="M6.71983 0.0395509H2.36407C2.21987 0.0394599 2.08038 0.0908718 1.97073 0.184523C1.86108 0.278174 1.78848 0.407907 1.76602 0.550345L0.00435239 11.7197C-0.00374653 11.7715 -0.00051583 11.8245 0.0138205 11.8749C0.0281568 11.9254 0.0532584 11.9721 0.0873979 12.012C0.121538 12.0518 0.163903 12.0838 0.211579 12.1056C0.259254 12.1275 0.311105 12.1388 0.363564 12.1387H2.44304C2.58734 12.1388 2.7269 12.0873 2.83657 11.9935C2.94623 11.8998 3.01877 11.7699 3.04109 11.6273L3.51622 8.61478C3.53853 8.47233 3.61098 8.34254 3.72051 8.24877C3.83004 8.155 3.96945 8.10343 4.11363 8.10335H5.49252C8.36176 8.10335 10.0177 6.7149 10.4502 3.96349C10.6451 2.75975 10.4584 1.81396 9.89478 1.15158C9.27571 0.424239 8.1777 0.0395509 6.71983 0.0395509ZM7.22235 4.1189C6.98415 5.68185 5.78996 5.68185 4.63526 5.68185H3.97797L4.43909 2.76294C4.45259 2.67754 4.49612 2.59977 4.56186 2.54361C4.62759 2.48745 4.71121 2.45659 4.79767 2.45659H5.09892C5.88549 2.45659 6.62748 2.45659 7.01089 2.90497C7.23954 3.17246 7.3096 3.56989 7.22235 4.1189ZM19.74 4.06858H17.6541C17.5677 4.06858 17.4841 4.09944 17.4183 4.1556C17.3526 4.21176 17.3091 4.28954 17.2956 4.37493L17.2032 4.95833L17.0574 4.74688C16.6058 4.09151 15.5989 3.87242 14.5938 3.87242C12.2889 3.87242 10.3202 5.61816 9.93682 8.06705C9.73747 9.28862 10.0209 10.4567 10.7138 11.2713C11.3495 12.0203 12.259 12.3324 13.341 12.3324C15.1982 12.3324 16.2281 11.1382 16.2281 11.1382L16.1351 11.7178C16.1268 11.7696 16.1299 11.8226 16.1441 11.8731C16.1582 11.9236 16.1832 11.9705 16.2172 12.0104C16.2512 12.0504 16.2935 12.0825 16.3411 12.1045C16.3888 12.1266 16.4406 12.138 16.4931 12.1381H18.3719C18.5162 12.1382 18.6558 12.0867 18.7654 11.9929C18.8751 11.8991 18.9476 11.7692 18.97 11.6267L20.0973 4.48766C20.1056 4.43596 20.1026 4.38307 20.0884 4.33265C20.0743 4.28223 20.0494 4.23548 20.0154 4.19564C19.9814 4.15579 19.9392 4.12379 19.8916 4.10186C19.8441 4.07992 19.7924 4.06857 19.74 4.06858ZM16.8325 8.12819C16.6313 9.31983 15.6855 10.1198 14.4792 10.1198C13.8735 10.1198 13.3895 9.92552 13.0786 9.55739C12.7704 9.19181 12.6532 8.67146 12.7513 8.09188C12.9392 6.91043 13.9009 6.08437 15.0887 6.08437C15.681 6.08437 16.1625 6.28118 16.4797 6.65249C16.7975 7.02762 16.9236 7.55116 16.8325 8.12819ZM30.8488 4.06858H28.7528C28.6539 4.06874 28.5566 4.09301 28.4692 4.13929C28.3819 4.18557 28.3072 4.25247 28.2515 4.33417L25.3606 8.59249L24.1352 4.5004C24.0976 4.37559 24.0208 4.26621 23.9162 4.18844C23.8116 4.11067 23.6847 4.06865 23.5544 4.06858H21.4946C21.4368 4.06843 21.3798 4.08209 21.3283 4.10842C21.2769 4.13475 21.2324 4.173 21.1987 4.21998C21.165 4.26695 21.143 4.3213 21.1346 4.3785C21.1261 4.43569 21.1314 4.49408 21.1501 4.54881L23.4588 11.3242L21.2883 14.3883C21.2497 14.4426 21.2268 14.5065 21.2222 14.573C21.2175 14.6394 21.2312 14.7059 21.2618 14.7651C21.2924 14.8243 21.3386 14.8739 21.3956 14.9086C21.4525 14.9432 21.5178 14.9615 21.5845 14.9615H23.6779C23.7757 14.9616 23.872 14.9381 23.9586 14.8928C24.0453 14.8475 24.1196 14.7819 24.1754 14.7016L31.1469 4.63861C31.1847 4.58417 31.2068 4.52042 31.211 4.45428C31.2151 4.38813 31.201 4.32212 31.1703 4.26339C31.1396 4.20467 31.0934 4.15547 31.0368 4.12113C30.9801 4.08679 30.9151 4.06861 30.8488 4.06858Z" fill="#253B80"/>
<path d="M37.7885 0.0392111H33.4321C33.2881 0.0392719 33.1487 0.0907522 33.0392 0.18439C32.9297 0.278027 32.8572 0.407675 32.8347 0.550005L31.0731 11.7193C31.0649 11.7711 31.068 11.824 31.0822 11.8744C31.0964 11.9248 31.1214 11.9715 31.1554 12.0114C31.1895 12.0512 31.2317 12.0832 31.2793 12.1051C31.3269 12.1271 31.3786 12.1384 31.431 12.1384H33.6665C33.7674 12.1383 33.8649 12.1021 33.9415 12.0365C34.018 11.9709 34.0687 11.8801 34.0843 11.7805L34.5843 8.61444C34.6066 8.47199 34.6791 8.34219 34.7886 8.24843C34.8981 8.15466 35.0375 8.10309 35.1817 8.10301H36.56C39.4298 8.10301 41.0851 6.71456 41.5182 3.96315C41.7138 2.75941 41.5259 1.81362 40.9622 1.15124C40.3438 0.423899 39.2464 0.0392111 37.7885 0.0392111ZM38.2911 4.11856C38.0535 5.68151 36.8593 5.68151 35.704 5.68151H35.0473L35.5091 2.7626C35.5223 2.6772 35.5657 2.59936 35.6313 2.54317C35.697 2.48697 35.7806 2.45614 35.867 2.45625H36.1683C36.9542 2.45625 37.6968 2.45625 38.0802 2.90463C38.3089 3.17212 38.3783 3.56955 38.2911 4.11856ZM50.8081 4.06824H48.7235C48.637 4.06801 48.5534 4.09879 48.4877 4.15501C48.422 4.21122 48.3787 4.28914 48.3655 4.37459L48.2732 4.95799L48.1267 4.74654C47.6751 4.09117 46.6688 3.87208 45.6638 3.87208C43.3589 3.87208 41.3909 5.61782 41.0074 8.0667C40.8087 9.28828 41.0909 10.4564 41.7838 11.271C42.4207 12.0199 43.3289 12.332 44.411 12.332C46.2682 12.332 47.2981 11.1378 47.2981 11.1378L47.2051 11.7174C47.1968 11.7693 47.1999 11.8225 47.2141 11.8731C47.2284 11.9237 47.2534 11.9706 47.2876 12.0106C47.3218 12.0506 47.3642 12.0826 47.412 12.1046C47.4598 12.1266 47.5117 12.1379 47.5643 12.1378H49.4425C49.5867 12.1377 49.7261 12.0861 49.8357 11.9923C49.9452 11.8986 50.0176 11.7688 50.04 11.6263L51.1679 4.48732C51.1759 4.43546 51.1726 4.38248 51.1582 4.33202C51.1438 4.28156 51.1186 4.23481 51.0844 4.195C51.0502 4.15518 51.0078 4.12324 50.9601 4.10136C50.9124 4.07948 50.8605 4.06818 50.8081 4.06824ZM47.9006 8.12785C47.7006 9.31949 46.7536 10.1194 45.5473 10.1194C44.9428 10.1194 44.4575 9.92518 44.1467 9.55705C43.8385 9.19147 43.7225 8.67112 43.8194 8.09154C44.0085 6.91009 44.969 6.08403 46.1568 6.08403C46.7491 6.08403 47.2306 6.28084 47.5478 6.65215C47.8669 7.02728 47.993 7.55081 47.9006 8.12785ZM53.2671 0.34556L51.4794 11.7193C51.4712 11.7711 51.4743 11.824 51.4885 11.8744C51.5027 11.9248 51.5277 11.9715 51.5617 12.0114C51.5957 12.0512 51.638 12.0832 51.6856 12.1051C51.7331 12.1271 51.7849 12.1384 51.8373 12.1384H53.6346C53.9333 12.1384 54.1868 11.9219 54.2327 11.627L55.9956 0.458292C56.0038 0.40652 56.0007 0.353591 55.9865 0.303142C55.9722 0.252693 55.9473 0.20592 55.9133 0.166039C55.8792 0.126158 55.837 0.0941145 55.7894 0.0721113C55.7419 0.050108 55.6901 0.038667 55.6377 0.0385742H53.6251C53.5387 0.0388802 53.4552 0.0699408 53.3896 0.126192C53.324 0.182444 53.2806 0.26021 53.2671 0.34556Z" fill="#179BD7"/>
</svg>
