<svg width="16" height="14" viewBox="0 0 16 14" fill="none" xmlns="http://www.w3.org/2000/svg">
<path d="M5.03333 13.5001C11.07 13.5001 14.3723 8.49813 14.3723 4.16146C14.3723 4.0208 14.369 3.87713 14.3627 3.73646C15.0052 3.27179 15.5596 2.69621 16 2.0368C15.4017 2.3028 14.7667 2.4768 14.116 2.55213C14.8008 2.14166 15.3136 1.49681 15.5593 0.737129C14.915 1.11902 14.2104 1.38843 13.4757 1.5338C12.9807 1.00757 12.3261 0.659106 11.6132 0.542283C10.9002 0.425461 10.1687 0.546794 9.53161 0.887517C8.89456 1.22824 8.38752 1.76937 8.08891 2.42721C7.79031 3.08506 7.71677 3.82296 7.87967 4.5268C6.575 4.46133 5.29865 4.12242 4.13336 3.53206C2.96806 2.94169 1.93984 2.11303 1.11533 1.0998C0.696305 1.82229 0.568091 2.67723 0.756747 3.49086C0.945403 4.30449 1.43677 5.01576 2.131 5.48013C1.60977 5.46361 1.09995 5.3233 0.643667 5.0708V5.11146C0.643231 5.86962 0.905349 6.60455 1.38547 7.19131C1.86559 7.77808 2.53409 8.18048 3.27733 8.33013C2.79463 8.46221 2.28801 8.48149 1.79667 8.38646C2.00644 9.03847 2.41454 9.60872 2.964 10.0176C3.51346 10.4266 4.17688 10.6537 4.86167 10.6675C4.18054 11.2026 3.40049 11.5981 2.56623 11.8313C1.73197 12.0644 0.859899 12.1306 0 12.0261C1.50191 12.9895 3.24899 13.5012 5.03333 13.5001Z" fill="#007580"/>
</svg>
