<svg width="55" height="19" viewBox="0 0 55 19" fill="none" xmlns="http://www.w3.org/2000/svg">
<path fill-rule="evenodd" clip-rule="evenodd" d="M19.3551 18.1244H23.843L26.6483 0.886628H22.16L19.3551 18.1244ZM11.3011 12.7429L15.5796 0.886628H20.4097L13.2695 18.1248H8.59352L4.69446 3.14878C2.16302 1.62854 0 1.1785 0 1.1785L0.000125848 1.17806C4.20006e-05 1.17804 0 1.17804 0 1.17804L0.0829981 0.886159H7.15627C9.10257 0.886159 9.28517 2.43822 9.28517 2.43822L10.7953 10.1902C10.7953 10.1902 10.7952 10.19 10.795 10.1895L10.7953 10.1907L10.7948 10.1898L11.3011 12.7429ZM55 18.1244H50.8792L50.3535 15.5639H44.6483L43.7127 18.1244H39.0344L45.7277 2.17079C45.7277 2.17079 46.1335 0.886167 47.7995 0.886167H51.4071L55 18.1244ZM48.2988 5.57601L45.9408 12.0268H49.6254L48.2988 5.57601ZM40.0258 1.3302L39.3853 5.03192C37.4648 3.97369 33.0941 3.72332 33.0936 5.67239C33.0936 6.44669 34.0825 6.9792 35.2745 7.62103C37.0821 8.59442 39.3567 9.81923 39.3567 12.5202C39.3567 16.8361 34.7365 18.4218 31.6739 18.4218C28.6122 18.4218 26.6082 17.4484 26.6082 17.4484L27.2754 13.5779C29.1129 15.053 34.6807 15.4721 34.6807 13.133C34.6807 12.1501 33.5847 11.5704 32.3137 10.8982C30.56 9.97076 28.4734 8.86718 28.4734 6.28519C28.4734 1.55199 33.7622 0.578613 35.9893 0.578613C38.0495 0.578613 40.0258 1.3302 40.0258 1.3302Z" fill="#E6A540"/>
</svg>
