<svg width="16" height="12" viewBox="0 0 16 12" fill="none" xmlns="http://www.w3.org/2000/svg">
<path d="M15.8407 2.80007C15.8407 2.80007 15.6843 1.69674 15.203 1.21274C14.5937 0.57507 13.9123 0.57207 13.6 0.534404C11.3627 0.37207 8.00333 0.37207 8.00333 0.37207H7.99667C7.99667 0.37207 4.63767 0.37207 2.4 0.534404C2.08733 0.57207 1.40633 0.57507 0.796667 1.21274C0.316 1.69674 0.162667 2.80007 0.162667 2.80007C0.162667 2.80007 0 4.09674 0 5.39074V6.60307C0 7.89707 0.159333 9.19374 0.159333 9.19374C0.159333 9.19374 0.315667 10.2971 0.793667 10.7814C1.403 11.4187 2.203 11.3971 2.55933 11.4657C3.84067 11.5877 8 11.6251 8 11.6251C8 11.6251 11.3623 11.6187 13.6 11.4594C13.9127 11.4221 14.5937 11.4187 15.2033 10.7814C15.6843 10.2971 15.8407 9.19374 15.8407 9.19374C15.8407 9.19374 16 7.9004 16 6.6034V5.39107C16 4.0974 15.8407 2.8004 15.8407 2.8004V2.80007ZM6.34667 8.07507V3.5784L10.6683 5.8344L6.34667 8.07507Z" fill="#007580"/>
</svg>
